<mxfile host="app.diagrams.net" modified="2023-08-24T22:48:40.672Z" agent="Mozilla/5.0 (Windows NT 10.0; Win64; x64) AppleWebKit/537.36 (KHTML, like Gecko) Chrome/116.0.0.0 Safari/537.36" version="21.6.9" etag="bAOJNOg1IAt8DTD2eT1k" type="github">
  <diagram name="PÃ¡gina-1" id="KcRHZokIRQ2erLNN0_lr">
    <mxGraphModel>
      <root>
        <mxCell id="0" />
        <mxCell id="1" parent="0" />
      </root>
    </mxGraphModel>
  </diagram>
</mxfile>
